<svg xmlns="http://www.w3.org/2000/svg" width="1200" height="760" viewBox="0 0 1200 760" role="img" aria-labelledby="title desc">
  <title id="title">MannaRise devotional platform preview</title>
  <desc id="desc">A clean faith-based devotional web platform preview with daily devotionals, audio content, and admin publishing features.</desc>
  <defs>
    <linearGradient id="bg" x1="0" y1="0" x2="1" y2="1">
      <stop offset="0" stop-color="#f7fee7" />
      <stop offset="0.55" stop-color="#ecfdf5" />
      <stop offset="1" stop-color="#fff7ed" />
    </linearGradient>
    <linearGradient id="card" x1="0" y1="0" x2="1" y2="1">
      <stop offset="0" stop-color="#ffffff" stop-opacity="0.94" />
      <stop offset="1" stop-color="#f8fafc" stop-opacity="0.9" />
    </linearGradient>
    <filter id="shadow" x="-20%" y="-20%" width="140%" height="140%">
      <feDropShadow dx="0" dy="24" stdDeviation="24" flood-color="#064e3b" flood-opacity="0.16" />
    </filter>
  </defs>

  <rect width="1200" height="760" fill="url(#bg)" />
  <circle cx="1000" cy="110" r="180" fill="#bbf7d0" opacity="0.45" />
  <circle cx="170" cy="650" r="210" fill="#fed7aa" opacity="0.42" />
  <circle cx="610" cy="140" r="90" fill="#86efac" opacity="0.25" />

  <g opacity="0.23" stroke="#166534" stroke-width="1">
    <path d="M0 80H1200M0 160H1200M0 240H1200M0 320H1200M0 400H1200M0 480H1200M0 560H1200M0 640H1200" />
    <path d="M80 0V760M160 0V760M240 0V760M320 0V760M400 0V760M480 0V760M560 0V760M640 0V760M720 0V760M800 0V760M880 0V760M960 0V760M1040 0V760M1120 0V760" />
  </g>

  <g filter="url(#shadow)">
    <rect x="110" y="90" width="980" height="580" rx="38" fill="url(#card)" stroke="#d1fae5" stroke-width="2" />
    <rect x="110" y="90" width="980" height="84" rx="38" fill="#064e3b" />
    <rect x="110" y="140" width="980" height="34" fill="#064e3b" />
    <circle cx="158" cy="132" r="11" fill="#bbf7d0" opacity="0.8" />
    <circle cx="193" cy="132" r="11" fill="#fde68a" opacity="0.9" />
    <circle cx="228" cy="132" r="11" fill="#fed7aa" opacity="0.9" />
    <text x="600" y="140" text-anchor="middle" font-family="Sora, Arial, sans-serif" font-size="26" font-weight="700" fill="#ecfdf5">MannaRise</text>

    <rect x="165" y="220" width="440" height="330" rx="28" fill="#ffffff" stroke="#d1fae5" stroke-width="2" />
    <text x="205" y="280" font-family="Sora, Arial, sans-serif" font-size="42" font-weight="800" fill="#064e3b">Daily Manna</text>
    <text x="205" y="325" font-family="DM Sans, Arial, sans-serif" font-size="23" fill="#475569">Read devotionals, listen to audio</text>
    <text x="205" y="360" font-family="DM Sans, Arial, sans-serif" font-size="23" fill="#475569">messages, and grow daily.</text>
    <rect x="205" y="405" width="210" height="54" rx="27" fill="#16a34a" />
    <text x="310" y="440" text-anchor="middle" font-family="DM Sans, Arial, sans-serif" font-size="20" font-weight="700" fill="#ffffff">Start Reading</text>
    <rect x="205" y="485" width="330" height="12" rx="6" fill="#bbf7d0" />
    <rect x="205" y="515" width="250" height="12" rx="6" fill="#dcfce7" />

    <rect x="660" y="220" width="370" height="128" rx="26" fill="#f0fdf4" stroke="#bbf7d0" />
    <circle cx="720" cy="284" r="34" fill="#16a34a" />
    <polygon points="710,266 710,302 742,284" fill="#ffffff" />
    <text x="775" y="276" font-family="Sora, Arial, sans-serif" font-size="24" font-weight="700" fill="#064e3b">Audio Devotional</text>
    <text x="775" y="310" font-family="DM Sans, Arial, sans-serif" font-size="18" fill="#475569">Sermons and spoken reflections</text>

    <rect x="660" y="382" width="370" height="168" rx="26" fill="#ffffff" stroke="#d1fae5" />
    <text x="700" y="434" font-family="Sora, Arial, sans-serif" font-size="24" font-weight="700" fill="#064e3b">Publishing Dashboard</text>
    <rect x="700" y="465" width="260" height="12" rx="6" fill="#bbf7d0" />
    <rect x="700" y="497" width="205" height="12" rx="6" fill="#dcfce7" />
    <rect x="700" y="529" width="290" height="12" rx="6" fill="#dcfce7" />
  </g>

  <text x="600" y="715" text-anchor="middle" font-family="DM Sans, Arial, sans-serif" font-size="22" font-weight="700" fill="#166534">Faith-Based Laravel Platform • Devotionals • Audio • SEO • Admin Content Flow</text>
</svg>
